<svg fill="none" height="32" viewBox="0 0 32 32" width="32" xmlns="http://www.w3.org/2000/svg" xmlns:xlink="http://www.w3.org/1999/xlink"><filter id="a" color-interpolation-filters="sRGB" filterUnits="userSpaceOnUse" height="11.5376" width="27.8125" x="2.09375" y="14.4312"><feFlood flood-opacity="0" result="BackgroundImageFix"/><feBlend in="SourceGraphic" in2="BackgroundImageFix" mode="normal" result="shape"/><feColorMatrix in="SourceAlpha" result="hardAlpha" type="matrix" values="0 0 0 0 0 0 0 0 0 0 0 0 0 0 0 0 0 0 127 0"/><feOffset dy="-.75"/><feGaussianBlur stdDeviation=".75"/><feComposite in2="hardAlpha" k2="-1" k3="1" operator="arithmetic"/><feColorMatrix type="matrix" values="0 0 0 0 0.819608 0 0 0 0 0.654902 0 0 0 0 0.933333 0 0 0 1 0"/><feBlend in2="shape" mode="normal" result="effect1_innerShadow_18_21780"/></filter><filter id="b" color-interpolation-filters="sRGB" filterUnits="userSpaceOnUse" height="11.1876" width="27.8125" x="2.09375" y="5.88125"><feFlood flood-opacity="0" result="BackgroundImageFix"/><feBlend in="SourceGraphic" in2="BackgroundImageFix" mode="normal" result="shape"/><feColorMatrix in="SourceAlpha" result="hardAlpha" type="matrix" values="0 0 0 0 0 0 0 0 0 0 0 0 0 0 0 0 0 0 127 0"/><feOffset dy="-.15"/><feGaussianBlur stdDeviation=".225"/><feComposite in2="hardAlpha" k2="-1" k3="1" operator="arithmetic"/><feColorMatrix type="matrix" values="0 0 0 0 0.827451 0 0 0 0 0.686275 0 0 0 0 0.913725 0 0 0 1 0"/><feBlend in2="shape" mode="normal" result="effect1_innerShadow_18_21780"/><feColorMatrix in="SourceAlpha" result="hardAlpha" type="matrix" values="0 0 0 0 0 0 0 0 0 0 0 0 0 0 0 0 0 0 127 0"/><feOffset dy=".25"/><feGaussianBlur stdDeviation=".3"/><feComposite in2="hardAlpha" k2="-1" k3="1" operator="arithmetic"/><feColorMatrix type="matrix" values="0 0 0 0 0.870588 0 0 0 0 0.858824 0 0 0 0 0.854902 0 0 0 1 0"/><feBlend in2="effect1_innerShadow_18_21780" mode="normal" result="effect2_innerShadow_18_21780"/></filter><filter id="c" color-interpolation-filters="sRGB" filterUnits="userSpaceOnUse" height="17" width="17" x="6.82892" y="7.97192"><feFlood flood-opacity="0" result="BackgroundImageFix"/><feBlend in="SourceGraphic" in2="BackgroundImageFix" mode="normal" result="shape"/><feGaussianBlur result="effect1_foregroundBlur_18_21780" stdDeviation=".75"/></filter><filter id="d" color-interpolation-filters="sRGB" filterUnits="userSpaceOnUse" height="14.5" width="14.4" x="8.80312" y="8.75"><feFlood flood-opacity="0" result="BackgroundImageFix"/><feBlend in="SourceGraphic" in2="BackgroundImageFix" mode="normal" result="shape"/><feColorMatrix in="SourceAlpha" result="hardAlpha" type="matrix" values="0 0 0 0 0 0 0 0 0 0 0 0 0 0 0 0 0 0 127 0"/><feOffset dx=".25"/><feGaussianBlur stdDeviation=".125"/><feComposite in2="hardAlpha" k2="-1" k3="1" operator="arithmetic"/><feColorMatrix type="matrix" values="0 0 0 0 0.192157 0 0 0 0 0.376471 0 0 0 0 0.721569 0 0 0 1 0"/><feBlend in2="shape" mode="normal" result="effect1_innerShadow_18_21780"/><feColorMatrix in="SourceAlpha" result="hardAlpha" type="matrix" values="0 0 0 0 0 0 0 0 0 0 0 0 0 0 0 0 0 0 127 0"/><feOffset dy="-.25"/><feGaussianBlur stdDeviation=".125"/><feComposite in2="hardAlpha" k2="-1" k3="1" operator="arithmetic"/><feColorMatrix type="matrix" values="0 0 0 0 0.32549 0 0 0 0 0.341176 0 0 0 0 0.819608 0 0 0 1 0"/><feBlend in2="effect1_innerShadow_18_21780" mode="normal" result="effect2_innerShadow_18_21780"/><feColorMatrix in="SourceAlpha" result="hardAlpha" type="matrix" values="0 0 0 0 0 0 0 0 0 0 0 0 0 0 0 0 0 0 127 0"/><feOffset dx="-.15" dy=".25"/><feGaussianBlur stdDeviation=".125"/><feComposite in2="hardAlpha" k2="-1" k3="1" operator="arithmetic"/><feColorMatrix type="matrix" values="0 0 0 0 0.317647 0 0 0 0 0.596078 0 0 0 0 0.882353 0 0 0 1 0"/><feBlend in2="effect2_innerShadow_18_21780" mode="normal" result="effect3_innerShadow_18_21780"/></filter><filter id="e" color-interpolation-filters="sRGB" filterUnits="userSpaceOnUse" height="9.65073" width="9.5" x="10.9931" y="11.2495"><feFlood flood-opacity="0" result="BackgroundImageFix"/><feColorMatrix in="SourceAlpha" result="hardAlpha" type="matrix" values="0 0 0 0 0 0 0 0 0 0 0 0 0 0 0 0 0 0 127 0"/><feOffset dx="-.15" dy=".15"/><feGaussianBlur stdDeviation=".125"/><feComposite in2="hardAlpha" operator="out"/><feColorMatrix type="matrix" values="0 0 0 0 0.152941 0 0 0 0 0.341176 0 0 0 0 0.768627 0 0 0 1 0"/><feBlend in2="BackgroundImageFix" mode="normal" result="effect1_dropShadow_18_21780"/><feBlend in="SourceGraphic" in2="effect1_dropShadow_18_21780" mode="normal" result="shape"/><feColorMatrix in="SourceAlpha" result="hardAlpha" type="matrix" values="0 0 0 0 0 0 0 0 0 0 0 0 0 0 0 0 0 0 127 0"/><feOffset dy="-.25"/><feGaussianBlur stdDeviation=".2"/><feComposite in2="hardAlpha" k2="-1" k3="1" operator="arithmetic"/><feColorMatrix type="matrix" values="0 0 0 0 0.803922 0 0 0 0 0.713726 0 0 0 0 0.921569 0 0 0 1 0"/><feBlend in2="shape" mode="normal" result="effect2_innerShadow_18_21780"/><feColorMatrix in="SourceAlpha" result="hardAlpha" type="matrix" values="0 0 0 0 0 0 0 0 0 0 0 0 0 0 0 0 0 0 127 0"/><feOffset dx="-.15" dy=".15"/><feGaussianBlur stdDeviation=".15"/><feComposite in2="hardAlpha" k2="-1" k3="1" operator="arithmetic"/><feColorMatrix type="matrix" values="0 0 0 0 0.917647 0 0 0 0 0.890196 0 0 0 0 0.952941 0 0 0 1 0"/><feBlend in2="effect2_innerShadow_18_21780" mode="normal" result="effect3_innerShadow_18_21780"/></filter><linearGradient id="f" gradientUnits="userSpaceOnUse" x1="4.09375" x2="29.9063" y1="17.1562" y2="16.9688"><stop offset="0" stop-color="#dfd0e6"/><stop offset="1" stop-color="#eee5f8"/></linearGradient><linearGradient id="g" gradientUnits="userSpaceOnUse" x1="2.09375" x2="5.13196" y1="17.095" y2="17.095"><stop offset="0" stop-color="#d6babd"/><stop offset="1" stop-color="#dcc9dd" stop-opacity="0"/></linearGradient><linearGradient id="h" gradientUnits="userSpaceOnUse" x1="10.8374" x2="10.0755" y1="18.9732" y2="17.786"><stop offset=".113759" stop-color="#dac3df"/><stop offset="1" stop-color="#dac3df" stop-opacity="0"/></linearGradient><radialGradient id="i" cx="0" cy="0" gradientTransform="matrix(-1.51168294 2.26753021 -15.92503912 -10.61666564 12.1236 13.3806)" gradientUnits="userSpaceOnUse" r="1"><stop offset=".342267" stop-color="#c8a6d7"/><stop offset="1" stop-color="#d1bbdd" stop-opacity="0"/></radialGradient><linearGradient id="j" gradientUnits="userSpaceOnUse" x1="21.0937" x2="21.9245" y1="19.2813" y2="17.786"><stop offset=".113759" stop-color="#f6effe"/><stop offset="1" stop-color="#f3eafd" stop-opacity="0"/></linearGradient><linearGradient id="k" gradientUnits="userSpaceOnUse" x1="20.1563" x2="21.2187" y1="13.9375" y2="15.375"><stop offset="0" stop-color="#e3cdf7"/><stop offset="1" stop-color="#e9d9f8" stop-opacity="0"/></linearGradient><linearGradient id="l" gradientUnits="userSpaceOnUse" x1="30.0937" x2="26.375" y1="19.5625" y2="19.5625"><stop offset="0" stop-color="#f7f3fb"/><stop offset="1" stop-color="#f0e9f8" stop-opacity="0"/></linearGradient><linearGradient id="m" gradientUnits="userSpaceOnUse" x1="30.0938" x2="28.8684" y1="19.5625" y2="19.5625"><stop offset=".199295" stop-color="#ebe9ed"/><stop offset="1" stop-color="#ebe9ed" stop-opacity="0"/></linearGradient><linearGradient id="n" gradientUnits="userSpaceOnUse" x1="16" x2="16" y1="27.7187" y2="16.9063"><stop offset="0" stop-color="#ddc5f1"/><stop offset="1" stop-color="#e6daf1"/></linearGradient><linearGradient id="o" gradientUnits="userSpaceOnUse" x1="7.48609" x2="7.94242" y1="20.1064" y2="20.7909"><stop offset=".0734082" stop-color="#ddc2c8"/><stop offset="1" stop-color="#dfcdda" stop-opacity="0"/></linearGradient><linearGradient id="p" gradientUnits="userSpaceOnUse" x1="22.5808" x2="22.294" y1="19.1586" y2="19.606"><stop offset=".139796" stop-color="#f8f3fd"/><stop offset="1" stop-color="#f1eaf9" stop-opacity="0"/></linearGradient><linearGradient id="q" gradientUnits="userSpaceOnUse" x1="16" x2="16" y1="6.03125" y2="16.8187"><stop offset="0" stop-color="#e9e4e9"/><stop offset="1" stop-color="#e7dcf0"/></linearGradient><linearGradient id="r" gradientUnits="userSpaceOnUse" x1="9.8097" x2="13.4243" y1="12.8779" y2="6.39289"><stop offset="0" stop-color="#e1d5e7"/><stop offset="1" stop-color="#e1d5e7" stop-opacity="0"/></linearGradient><linearGradient id="s" gradientUnits="userSpaceOnUse" x1="2.09375" x2="5.02564" y1="7.66864" y2="7.66864"><stop offset="0" stop-color="#e1c1bc"/><stop offset="1" stop-color="#e1c1bc" stop-opacity="0"/><stop offset="1" stop-color="#e9d1cd" stop-opacity="0"/></linearGradient><radialGradient id="t" cx="0" cy="0" gradientTransform="matrix(-4.57141929 -4.08258523 18.08995857 -20.25598508 27.4575 10.1138)" gradientUnits="userSpaceOnUse" r="1"><stop offset="0" stop-color="#fbf9fe"/><stop offset="1" stop-color="#f0ecf1" stop-opacity="0"/></radialGradient><linearGradient id="u" gradientUnits="userSpaceOnUse" x1="22.4375" x2="10.6875" y1="14.2812" y2="18.5938"><stop offset="0" stop-color="#347bd7"/><stop offset="1" stop-color="#3477cb"/></linearGradient><rect fill="url(#f)" height="19.9375" rx="1.75" width="27.8125" x="2.09375" y="6.03125"/><rect fill="url(#g)" height="19.9375" rx="1.75" width="27.8125" x="2.09375" y="6.03125"/><path d="m16 6.03125v19.93755h-12.15625c-.96649 0-1.75-.7836-1.75-1.75v-16.43755c0-.96649.78351-1.75 1.75-1.75z" fill="url(#h)"/><path d="m16 6.03125v19.93755h-12.15625c-.96649 0-1.75-.7836-1.75-1.75v-16.43755c0-.96649.78351-1.75 1.75-1.75z" fill="url(#i)"/><path d="m16 6.03125v19.93755h12.1562c.9665 0 1.75-.7836 1.75-1.75v-16.43755c0-.96649-.7835-1.75-1.75-1.75z" fill="url(#j)"/><path d="m16 6.03125v19.93755h12.1562c.9665 0 1.75-.7836 1.75-1.75v-16.43755c0-.96649-.7835-1.75-1.75-1.75z" fill="url(#k)"/><path d="m16 6.03125v19.93755h12.1562c.9665 0 1.75-.7836 1.75-1.75v-16.43755c0-.96649-.7835-1.75-1.75-1.75z" fill="url(#l)"/><path d="m16 6.03125v19.93755h12.1562c.9665 0 1.75-.7836 1.75-1.75v-16.43755c0-.96649-.7835-1.75-1.75-1.75z" fill="url(#m)"/><g filter="url(#a)"><path d="m2.09375 24.2188c0-.2625.1352-.5065.35776-.6456l13.32839-8.3311c.1298-.0812.2947-.0811.4244.0002l13.3728 8.3817c.2048.1284.3291.3531.3291.5948 0 .9664-.7835 1.75-1.75 1.75h-24.31245c-.96649 0-1.75-.7836-1.75-1.75z" fill="url(#n)"/></g><path d="m2.09375 24.2188c0-.2625.1352-.5065.35776-.6456l13.32839-8.3311c.1298-.0812.2947-.0811.4244.0002l13.3728 8.3817c.2048.1284.3291.3531.3291.5948 0 .9664-.7835 1.75-1.75 1.75h-24.31245c-.96649 0-1.75-.7836-1.75-1.75z" fill="url(#o)"/><path d="m2.09375 24.2188c0-.2625.1352-.5065.35776-.6456l13.32839-8.3311c.1298-.0812.2947-.0811.4244.0002l13.3728 8.3817c.2048.1284.3291.3531.3291.5948 0 .9664-.7835 1.75-1.75 1.75h-24.31245c-.96649 0-1.75-.7836-1.75-1.75z" fill="url(#p)"/><g filter="url(#b)"><path d="m2.09375 7.78125c0 .26246.1352.50642.35776.64553l13.32839 8.33112c.1298.0812.2947.0811.4244-.0002l13.3728-8.38174c.2048-.12835.3291-.35303.3291-.59471 0-.96649-.7835-1.75-1.75-1.75h-24.31245c-.96649 0-1.75.78351-1.75 1.75z" fill="url(#q)"/><path d="m2.09375 7.78125c0 .26246.1352.50642.35776.64553l13.32839 8.33112c.1298.0812.2947.0811.4244-.0002l13.3728-8.38174c.2048-.12835.3291-.35303.3291-.59471 0-.96649-.7835-1.75-1.75-1.75h-24.31245c-.96649 0-1.75.78351-1.75 1.75z" fill="url(#r)"/><path d="m2.09375 7.78125c0 .26246.1352.50642.35776.64553l13.32839 8.33112c.1298.0812.2947.0811.4244-.0002l13.3728-8.38174c.2048-.12835.3291-.35303.3291-.59471 0-.96649-.7835-1.75-1.75-1.75h-24.31245c-.96649 0-1.75.78351-1.75 1.75z" fill="url(#s)"/><path d="m2.09375 7.78125c0 .26246.1352.50642.35776.64553l13.32839 8.33112c.1298.0812.2947.0811.4244-.0002l13.3728-8.38174c.2048-.12835.3291-.35303.3291-.59471 0-.96649-.7835-1.75-1.75-1.75h-24.31245c-.96649 0-1.75.78351-1.75 1.75z" fill="url(#t)"/></g><g filter="url(#c)"><path d="m15.3289 23.4719c3.866 0 7-3.134 7-7s-3.134-6.99998-7-6.99998-6.99998 3.13398-6.99998 6.99998 3.13398 7 6.99998 7z" fill="#c2a5d0"/></g><g filter="url(#d)"><path d="m15.9531 23c3.866 0 7-3.134 7-7s-3.134-7-7-7-6.99998 3.134-6.99998 7 3.13398 7 6.99998 7z" fill="url(#u)"/></g><g filter="url(#e)"><path d="m15.9531 11.5001c-1.21-.02-2.36.44-3.22 1.3-.87.85-1.34 1.99-1.34 3.2 0 2.48 2.02 4.5 4.5 4.5.26 0 .47-.21.47-.47s-.21-.47-.47-.47c-1.96 0-3.56-1.6-3.56-3.56 0-.96.38-1.86 1.06-2.53s1.59-1.03 2.55-1.03c1.93.03 3.51 1.65 3.51 3.62v.81c0 .37-.3.67-.67.67s-.67-.3-.67-.67v-3.08c0-.26-.21-.47-.47-.47s-.49.21-.49.47v.09c-.44-.35-.99-.57-1.6-.57-1.4 0-2.54 1.14-2.54 2.54s1.14 2.54 2.54 2.54c.7 0 1.34-.29 1.8-.75.28.5.81.84 1.42.84.89 0 1.62-.73 1.62-1.62v-.81c0-2.47-1.99-4.52-4.44-4.55zm-.39 5.96c-.88 0-1.6-.72-1.6-1.6s.72-1.6 1.6-1.6 1.6.72 1.6 1.6-.72 1.6-1.6 1.6z" fill="#e6e0ed"/></g></svg>