<svg fill="none" height="32" viewBox="0 0 32 32" width="32" xmlns="http://www.w3.org/2000/svg" xmlns:xlink="http://www.w3.org/1999/xlink"><filter id="a" color-interpolation-filters="sRGB" filterUnits="userSpaceOnUse" height="9.32678" width="10.2477" x="19.1207" y="18.8589"><feFlood flood-opacity="0" result="BackgroundImageFix"/><feBlend in="SourceGraphic" in2="BackgroundImageFix" mode="normal" result="shape"/><feGaussianBlur result="effect1_foregroundBlur_6899_5277" stdDeviation=".75"/></filter><filter id="b" color-interpolation-filters="sRGB" filterUnits="userSpaceOnUse" height="6.698" width="5.72693" x="3.55408" y="20.3203"><feFlood flood-opacity="0" result="BackgroundImageFix"/><feBlend in="SourceGraphic" in2="BackgroundImageFix" mode="normal" result="shape"/><feGaussianBlur result="effect1_foregroundBlur_6899_5277" stdDeviation=".75"/></filter><filter id="c" color-interpolation-filters="sRGB" filterUnits="userSpaceOnUse" height="11.6356" width="9.00903" x="18.9328" y="4.55347"><feFlood flood-opacity="0" result="BackgroundImageFix"/><feBlend in="SourceGraphic" in2="BackgroundImageFix" mode="normal" result="shape"/><feGaussianBlur result="effect1_foregroundBlur_6899_5277" stdDeviation=".5"/></filter><filter id="d" color-interpolation-filters="sRGB" filterUnits="userSpaceOnUse" height="4.625" width="3.41745" x="24.8055" y="4.41406"><feFlood flood-opacity="0" result="BackgroundImageFix"/><feBlend in="SourceGraphic" in2="BackgroundImageFix" mode="normal" result="shape"/><feGaussianBlur result="effect1_foregroundBlur_6899_5277" stdDeviation=".5"/></filter><filter id="e" color-interpolation-filters="sRGB" filterUnits="userSpaceOnUse" height="10.7285" width="8.94989" x="2.90601" y="3.60156"><feFlood flood-opacity="0" result="BackgroundImageFix"/><feBlend in="SourceGraphic" in2="BackgroundImageFix" mode="normal" result="shape"/><feGaussianBlur result="effect1_foregroundBlur_6899_5277" stdDeviation="1"/></filter><filter id="f" color-interpolation-filters="sRGB" filterUnits="userSpaceOnUse" height="3.0238" width="3.66141" x="13.7482" y="20.056"><feFlood flood-opacity="0" result="BackgroundImageFix"/><feBlend in="SourceGraphic" in2="BackgroundImageFix" mode="normal" result="shape"/><feGaussianBlur result="effect1_foregroundBlur_6899_5277" stdDeviation=".25"/></filter><filter id="g" color-interpolation-filters="sRGB" filterUnits="userSpaceOnUse" height="1.74846" width="2.72344" x="14.9086" y="19.8672"><feFlood flood-opacity="0" result="BackgroundImageFix"/><feBlend in="SourceGraphic" in2="BackgroundImageFix" mode="normal" result="shape"/><feGaussianBlur result="effect1_foregroundBlur_6899_5277" stdDeviation=".3"/></filter><filter id="h" color-interpolation-filters="sRGB" filterUnits="userSpaceOnUse" height="4.0127" width="6.00494" x="23.685" y="19.9796"><feFlood flood-opacity="0" result="BackgroundImageFix"/><feBlend in="SourceGraphic" in2="BackgroundImageFix" mode="normal" result="shape"/><feGaussianBlur result="effect1_foregroundBlur_6899_5277" stdDeviation=".25"/></filter><filter id="i" color-interpolation-filters="sRGB" filterUnits="userSpaceOnUse" height="3.56567" width="4.12671" x="23.6851" y="23.8235"><feFlood flood-opacity="0" result="BackgroundImageFix"/><feBlend in="SourceGraphic" in2="BackgroundImageFix" mode="normal" result="shape"/><feGaussianBlur result="effect1_foregroundBlur_6899_5277" stdDeviation=".25"/></filter><filter id="j" color-interpolation-filters="sRGB" filterUnits="userSpaceOnUse" height="3.11255" width="5.10474" x="24.9163" y="20.2484"><feFlood flood-opacity="0" result="BackgroundImageFix"/><feBlend in="SourceGraphic" in2="BackgroundImageFix" mode="normal" result="shape"/><feGaussianBlur result="effect1_foregroundBlur_6899_5277" stdDeviation=".25"/></filter><filter id="k" color-interpolation-filters="sRGB" filterUnits="userSpaceOnUse" height="1.33728" width="1.36264" x="28.9245" y="19.9119"><feFlood flood-opacity="0" result="BackgroundImageFix"/><feBlend in="SourceGraphic" in2="BackgroundImageFix" mode="normal" result="shape"/><feGaussianBlur result="effect1_foregroundBlur_6899_5277" stdDeviation=".25"/></filter><filter id="l" color-interpolation-filters="sRGB" filterUnits="userSpaceOnUse" height="3.11914" width="5.10162" x="24.8484" y="23.899"><feFlood flood-opacity="0" result="BackgroundImageFix"/><feBlend in="SourceGraphic" in2="BackgroundImageFix" mode="normal" result="shape"/><feGaussianBlur result="effect1_foregroundBlur_6899_5277" stdDeviation=".25"/></filter><filter id="m" color-interpolation-filters="sRGB" filterUnits="userSpaceOnUse" height="1.34009" width="1.35999" x="28.8604" y="25.6981"><feFlood flood-opacity="0" result="BackgroundImageFix"/><feBlend in="SourceGraphic" in2="BackgroundImageFix" mode="normal" result="shape"/><feGaussianBlur result="effect1_foregroundBlur_6899_5277" stdDeviation=".25"/></filter><filter id="n" color-interpolation-filters="sRGB" filterUnits="userSpaceOnUse" height="3.11914" width="5.10162" x="2.14175" y="23.9108"><feFlood flood-opacity="0" result="BackgroundImageFix"/><feBlend in="SourceGraphic" in2="BackgroundImageFix" mode="normal" result="shape"/><feGaussianBlur result="effect1_foregroundBlur_6899_5277" stdDeviation=".25"/></filter><filter id="o" color-interpolation-filters="sRGB" filterUnits="userSpaceOnUse" height="1.33594" width="1.36395" x="5.96417" y="23.837"><feFlood flood-opacity="0" result="BackgroundImageFix"/><feBlend in="SourceGraphic" in2="BackgroundImageFix" mode="normal" result="shape"/><feGaussianBlur result="effect1_foregroundBlur_6899_5277" stdDeviation=".25"/></filter><filter id="p" color-interpolation-filters="sRGB" filterUnits="userSpaceOnUse" height="3.09375" width="5.11365" x="2.21042" y="20.0552"><feFlood flood-opacity="0" result="BackgroundImageFix"/><feBlend in="SourceGraphic" in2="BackgroundImageFix" mode="normal" result="shape"/><feGaussianBlur result="effect1_foregroundBlur_6899_5277" stdDeviation=".25"/></filter><filter id="q" color-interpolation-filters="sRGB" filterUnits="userSpaceOnUse" height="1.36377" width="1.33606" x="6.08273" y="21.8225"><feFlood flood-opacity="0" result="BackgroundImageFix"/><feBlend in="SourceGraphic" in2="BackgroundImageFix" mode="normal" result="shape"/><feGaussianBlur result="effect1_foregroundBlur_6899_5277" stdDeviation=".25"/></filter><filter id="r" color-interpolation-filters="sRGB" filterUnits="userSpaceOnUse" height="22.1857" width="12.5851" x="18.1024" y="6.10156"><feFlood flood-opacity="0" result="BackgroundImageFix"/><feBlend in="SourceGraphic" in2="BackgroundImageFix" mode="normal" result="shape"/><feGaussianBlur result="effect1_foregroundBlur_6899_5277" stdDeviation="2"/></filter><filter id="s" color-interpolation-filters="sRGB" filterUnits="userSpaceOnUse" height="7.1375" width="4.825" x="22.4086" y="6.76719"><feFlood flood-opacity="0" result="BackgroundImageFix"/><feBlend in="SourceGraphic" in2="BackgroundImageFix" mode="normal" result="shape"/><feGaussianBlur result="effect1_foregroundBlur_6899_5277" stdDeviation=".3"/></filter><filter id="t" color-interpolation-filters="sRGB" filterUnits="userSpaceOnUse" height="4.73438" width="4.53125" x="22.7274" y="9.28906"><feFlood flood-opacity="0" result="BackgroundImageFix"/><feBlend in="SourceGraphic" in2="BackgroundImageFix" mode="normal" result="shape"/><feGaussianBlur result="effect1_foregroundBlur_6899_5277" stdDeviation=".375"/></filter><filter id="u" color-interpolation-filters="sRGB" filterUnits="userSpaceOnUse" height="6.90771" width="4.46875" x="4.72321" y="6.99927"><feFlood flood-opacity="0" result="BackgroundImageFix"/><feBlend in="SourceGraphic" in2="BackgroundImageFix" mode="normal" result="shape"/><feGaussianBlur result="effect1_foregroundBlur_6899_5277" stdDeviation=".25"/></filter><filter id="v" color-interpolation-filters="sRGB" filterUnits="userSpaceOnUse" height="6.3374" width="1.15002" x="4.64819" y="7.15161"><feFlood flood-opacity="0" result="BackgroundImageFix"/><feBlend in="SourceGraphic" in2="BackgroundImageFix" mode="normal" result="shape"/><feGaussianBlur result="effect1_foregroundBlur_6899_5277" stdDeviation=".25"/></filter><filter id="w" color-interpolation-filters="sRGB" filterUnits="userSpaceOnUse" height="3.34529" width="4.82969" x="9.27264" y="17.4679"><feFlood flood-opacity="0" result="BackgroundImageFix"/><feBlend in="SourceGraphic" in2="BackgroundImageFix" mode="normal" result="shape"/><feGaussianBlur result="effect1_foregroundBlur_6899_5277" stdDeviation=".2"/></filter><filter id="x" color-interpolation-filters="sRGB" filterUnits="userSpaceOnUse" height="3.34529" width="4.82969" x="17.2414" y="17.4679"><feFlood flood-opacity="0" result="BackgroundImageFix"/><feBlend in="SourceGraphic" in2="BackgroundImageFix" mode="normal" result="shape"/><feGaussianBlur result="effect1_foregroundBlur_6899_5277" stdDeviation=".2"/></filter><filter id="y" color-interpolation-filters="sRGB" filterUnits="userSpaceOnUse" height="1.25313" width="1.12813" x="20.975" y="18.7406"><feFlood flood-opacity="0" result="BackgroundImageFix"/><feBlend in="SourceGraphic" in2="BackgroundImageFix" mode="normal" result="shape"/><feGaussianBlur result="effect1_foregroundBlur_6899_5277" stdDeviation=".2"/></filter><filter id="z" color-interpolation-filters="sRGB" filterUnits="userSpaceOnUse" height="1.25313" width="1.12813" x="13.0805" y="18.7406"><feFlood flood-opacity="0" result="BackgroundImageFix"/><feBlend in="SourceGraphic" in2="BackgroundImageFix" mode="normal" result="shape"/><feGaussianBlur result="effect1_foregroundBlur_6899_5277" stdDeviation=".2"/></filter><filter id="A" color-interpolation-filters="sRGB" filterUnits="userSpaceOnUse" height="5.50232" width="3.03632" x="24.0352" y="19.4797"><feFlood flood-opacity="0" result="BackgroundImageFix"/><feBlend in="SourceGraphic" in2="BackgroundImageFix" mode="normal" result="shape"/><feGaussianBlur result="effect1_foregroundBlur_6899_5277" stdDeviation=".25"/></filter><filter id="B" color-interpolation-filters="sRGB" filterUnits="userSpaceOnUse" height="2.25696" width="3.20844" x="27.3501" y="21.7903"><feFlood flood-opacity="0" result="BackgroundImageFix"/><feBlend in="SourceGraphic" in2="BackgroundImageFix" mode="normal" result="shape"/><feGaussianBlur result="effect1_foregroundBlur_6899_5277" stdDeviation=".25"/></filter><filter id="C" color-interpolation-filters="sRGB" filterUnits="userSpaceOnUse" height="1.54639" width="1.81085" x="27.694" y="20.809"><feFlood flood-opacity="0" result="BackgroundImageFix"/><feBlend in="SourceGraphic" in2="BackgroundImageFix" mode="normal" result="shape"/><feGaussianBlur result="effect1_foregroundBlur_6899_5277" stdDeviation=".25"/></filter><filter id="D" color-interpolation-filters="sRGB" filterUnits="userSpaceOnUse" height="2.56238" width="1.83026" x="24.9996" y="21.4374"><feFlood flood-opacity="0" result="BackgroundImageFix"/><feBlend in="SourceGraphic" in2="BackgroundImageFix" mode="normal" result="shape"/><feGaussianBlur result="effect1_foregroundBlur_6899_5277" stdDeviation=".125"/></filter><filter id="E" color-interpolation-filters="sRGB" filterUnits="userSpaceOnUse" height="3.79797" width="4.82022" x="24.9048" y="21.1047"><feFlood flood-opacity="0" result="BackgroundImageFix"/><feBlend in="SourceGraphic" in2="BackgroundImageFix" mode="normal" result="shape"/><feGaussianBlur result="effect1_foregroundBlur_6899_5277" stdDeviation=".25"/></filter><filter id="F" color-interpolation-filters="sRGB" filterUnits="userSpaceOnUse" height="2.53625" width="3.11395" x="23.2379" y="18.9802"><feFlood flood-opacity="0" result="BackgroundImageFix"/><feBlend in="SourceGraphic" in2="BackgroundImageFix" mode="normal" result="shape"/><feGaussianBlur result="effect1_foregroundBlur_6899_5277" stdDeviation=".25"/></filter><filter id="G" color-interpolation-filters="sRGB" filterUnits="userSpaceOnUse" height="6.54382" width="3.27188" x="15" y="22.8906"><feFlood flood-opacity="0" result="BackgroundImageFix"/><feBlend in="SourceGraphic" in2="BackgroundImageFix" mode="normal" result="shape"/><feGaussianBlur result="effect1_foregroundBlur_6899_5277" stdDeviation=".25"/></filter><linearGradient id="H" gradientUnits="userSpaceOnUse" x1="7.90668" x2="7.90668" y1="1.34978" y2="30.99"><stop offset=".288159" stop-color="#f2cc26"/><stop offset=".762024" stop-color="#e99e20"/><stop offset=".9925" stop-color="#e3821d"/><stop offset="1" stop-color="#e3801d"/></linearGradient><linearGradient id="I"><stop offset="0" stop-color="#e99e20" stop-opacity="0"/><stop offset=".9925" stop-color="#e3821d"/><stop offset="1" stop-color="#e3801d"/></linearGradient><linearGradient id="J" gradientUnits="userSpaceOnUse" x1="8.83102" x2="1.16971" xlink:href="#I" y1="12.033" y2="12.033"/><linearGradient id="K" gradientUnits="userSpaceOnUse" x1="26.7911" x2="30.245" xlink:href="#I" y1="12.033" y2="12.033"/><linearGradient id="L" gradientUnits="userSpaceOnUse" x1="16.001" x2="16" y1="-1.59459" y2="30.99"><stop offset=".77079" stop-color="#f59639" stop-opacity="0"/><stop offset="1" stop-color="#ff63c4"/></linearGradient><linearGradient id="M" gradientUnits="userSpaceOnUse" x1="16" x2="16" y1="11.2521" y2="32.475"><stop offset=".854227" stop-color="#fff" stop-opacity="0"/><stop offset=".985362" stop-color="#fff"/></linearGradient><radialGradient id="N" cx="0" cy="0" gradientTransform="matrix(3.04568928 4.42400808 -8.78922202 6.05090198 22.1755 4.47688)" gradientUnits="userSpaceOnUse" r="1"><stop offset="0" stop-color="#ffa720"/><stop offset=".921158" stop-color="#ffa720" stop-opacity="0"/></radialGradient><linearGradient id="O" gradientUnits="userSpaceOnUse" x1="23.4373" x2="27.9996" y1="9.0347" y2="13.73"><stop offset="0" stop-color="#ffa720"/><stop offset="1" stop-color="#ffa720" stop-opacity="0"/></linearGradient><linearGradient id="P" gradientUnits="userSpaceOnUse" x1="10.6023" x2="4.74258" y1="10.6172" y2="10.0703"><stop offset=".437473" stop-color="#ed8c1b"/><stop offset="1" stop-color="#ffb03a"/></linearGradient><linearGradient id="Q" gradientUnits="userSpaceOnUse" x1="27.0399" x2="26.4438" y1="4.96094" y2="7.30239"><stop offset=".28598" stop-color="#ffe792"/><stop offset="1" stop-color="#ffdd65" stop-opacity="0"/></linearGradient><linearGradient id="R" gradientUnits="userSpaceOnUse" x1="15.7508" x2="15.0789" y1="22.3512" y2="23.445"><stop offset="0" stop-color="#e3900e"/><stop offset="1" stop-color="#ea9d26" stop-opacity="0"/></linearGradient><radialGradient id="S" cx="0" cy="0" gradientTransform="matrix(-1.89062885 -.95312092 .95875693 -1.90180855 16.4461 21.1797)" gradientUnits="userSpaceOnUse" r="1"><stop offset="0" stop-color="#ea088b"/><stop offset="1" stop-color="#e61e27"/></radialGradient><linearGradient id="T" gradientUnits="userSpaceOnUse" x1="17.2036" x2="15.6801" y1="20.7414" y2="20.7414"><stop offset="0" stop-color="#fff" stop-opacity=".9"/><stop offset="1" stop-color="#fff" stop-opacity="0"/></linearGradient><linearGradient id="U" gradientUnits="userSpaceOnUse" x1="24.2898" x2="28.0242" y1="23.236" y2="21.3203"><stop offset="0" stop-color="#e88105"/><stop offset="1" stop-color="#e37d02" stop-opacity="0"/></linearGradient><linearGradient id="V" gradientUnits="userSpaceOnUse" x1="24.2898" x2="28.0242" y1="24.5798" y2="26.4955"><stop offset=".286458" stop-color="#de7d07"/><stop offset=".817708" stop-color="#e37d02" stop-opacity="0"/></linearGradient><linearGradient id="W"><stop offset=".15625" stop-color="#d64a38"/><stop offset="1" stop-color="#fb7425"/></linearGradient><linearGradient id="X" gradientUnits="userSpaceOnUse" x1="25.2898" x2="29.371" xlink:href="#W" y1="22.9453" y2="21.0078"/><linearGradient id="Y" gradientUnits="userSpaceOnUse" x1="25.0739" x2="29.1465" xlink:href="#W" y1="24.7096" y2="26.6651"/><linearGradient id="Z" gradientUnits="userSpaceOnUse" x1="7.01785" x2="2.94525" xlink:href="#W" y1="24.7214" y2="26.6768"/><linearGradient id="aa" gradientUnits="userSpaceOnUse" x1="6.81823" x2="2.72754" xlink:href="#W" y1="22.9292" y2="21.0118"/><linearGradient id="ab" gradientUnits="userSpaceOnUse" x1="23.3524" x2="22.9558" y1="10.8385" y2="22.8891"><stop offset=".548257" stop-color="#ffdd65"/><stop offset="1" stop-color="#ffdd65" stop-opacity="0"/></linearGradient><linearGradient id="ac" gradientUnits="userSpaceOnUse" x1="26.5398" x2="25.2898" y1="15.5078" y2="12.0391"><stop offset="0" stop-color="#ef8a47"/><stop offset="1" stop-color="#ef8a47" stop-opacity="0"/></linearGradient><radialGradient id="ad" cx="0" cy="0" gradientTransform="matrix(4.40624866 6.46874874 -7.75589325 5.28299918 22.868 7.77344)" gradientUnits="userSpaceOnUse" r="1"><stop offset="0" stop-color="#ffdf70"/><stop offset="1" stop-color="#ffdf70" stop-opacity="0"/></radialGradient><linearGradient id="ae" gradientUnits="userSpaceOnUse" x1="25.0555" x2="25.0555" y1="10.4766" y2="12.8203"><stop offset=".432292" stop-color="#ffe7a3"/><stop offset="1" stop-color="#ffdf83" stop-opacity="0"/></linearGradient><linearGradient id="af"><stop offset="0" stop-color="#ec9611"/><stop offset="1" stop-color="#ea9d26" stop-opacity="0"/></linearGradient><linearGradient id="ag" gradientUnits="userSpaceOnUse" x1="14.9531" x2="15.2627" xlink:href="#af" y1="19.7307" y2="22.9468"/><linearGradient id="ah" gradientUnits="userSpaceOnUse" x1="22.9219" x2="23.2315" xlink:href="#af" y1="19.7307" y2="22.9468"/><linearGradient id="ai"><stop offset=".166667" stop-color="#482641"/><stop offset=".276042" stop-color="#594253"/><stop offset=".401042" stop-color="#483637"/></linearGradient><radialGradient id="aj" cx="0" cy="0" gradientTransform="matrix(-.1098581 -5.75866221 5.75788235 -.10984322 12.0156 19.5886)" gradientUnits="userSpaceOnUse" r="1" xlink:href="#ai"/><linearGradient id="ak"><stop offset="0" stop-color="#271b27"/><stop offset="1" stop-color="#483637" stop-opacity="0"/></linearGradient><linearGradient id="al" gradientUnits="userSpaceOnUse" x1="9.98438" x2="11.75" xlink:href="#ak" y1="20.1406" y2="18.8594"/><radialGradient id="am" cx="0" cy="0" gradientTransform="matrix(-.1098581 -5.75866221 5.75788235 -.10984322 19.9844 19.5886)" gradientUnits="userSpaceOnUse" r="1" xlink:href="#ai"/><linearGradient id="an" gradientUnits="userSpaceOnUse" x1="17.9531" x2="19.7188" xlink:href="#ak" y1="20.1406" y2="18.8594"/><radialGradient id="ao" cx="0" cy="0" gradientTransform="matrix(-2.51880855 6.18047571 -7.13219431 -2.90667464 25.9235 21.0091)" gradientUnits="userSpaceOnUse" r="1"><stop offset="0" stop-color="#f12e52"/><stop offset=".596003" stop-color="#ff3b79"/><stop offset="1" stop-color="#ff4ec6"/></radialGradient><radialGradient id="ap" cx="0" cy="0" gradientTransform="matrix(1.8529037 5.40407016 -8.51926418 2.92101613 25.5093 22.7057)" gradientUnits="userSpaceOnUse" r="1"><stop offset=".634872" stop-color="#ffa9bd" stop-opacity="0"/><stop offset=".833898" stop-color="#ffa9bd"/></radialGradient><radialGradient id="aq" cx="0" cy="0" gradientTransform="matrix(-5.63498919 1.28510005 -3.17199922 -13.90878585 27.1619 23.3165)" gradientUnits="userSpaceOnUse" r="1"><stop offset=".766579" stop-color="#ffa9bd" stop-opacity="0"/><stop offset=".933184" stop-color="#ffa9bd"/></radialGradient><radialGradient id="ar" cx="0" cy="0" gradientTransform="matrix(-4.01846759 -5.18337868 7.66899978 -5.9454709 25.26 23.8198)" gradientUnits="userSpaceOnUse" r="1"><stop offset=".649211" stop-color="#ffa9bd" stop-opacity="0"/><stop offset=".909941" stop-color="#ffa9bd"/></radialGradient><linearGradient id="as"><stop offset="0" stop-color="#ff7d9c"/><stop offset="1" stop-color="#f9698b" stop-opacity="0"/></linearGradient><linearGradient id="at" gradientUnits="userSpaceOnUse" x1="27.0146" x2="24.8604" xlink:href="#as" y1="22.6639" y2="17.7601"/><linearGradient id="au" gradientUnits="userSpaceOnUse" x1="29.7501" x2="28.5731" xlink:href="#as" y1="22.5881" y2="22.0877"/><linearGradient id="av" gradientUnits="userSpaceOnUse" x1="28.7588" x2="28.2446" xlink:href="#as" y1="21.2171" y2="21.2718"/><linearGradient id="aw" gradientUnits="userSpaceOnUse" x1="26.5018" x2="25.28" y1="21.6892" y2="23.9609"><stop offset="0" stop-color="#ff99b1"/><stop offset="1" stop-color="#ff8aa6" stop-opacity="0"/></linearGradient><linearGradient id="ax"><stop offset="0" stop-color="#ff365b"/><stop offset="1" stop-color="#e72044"/></linearGradient><linearGradient id="ay" gradientUnits="userSpaceOnUse" x1="25.9781" x2="28.3673" xlink:href="#ax" y1="23.3784" y2="21.073"/><linearGradient id="az" gradientUnits="userSpaceOnUse" x1="23.8452" x2="24.6763" xlink:href="#ax" y1="20.1399" y2="19.047"/><radialGradient id="aA" cx="0" cy="0" gradientTransform="matrix(5.06762786 -.09667965 .09666649 5.06693799 15.8808 27.2578)" gradientUnits="userSpaceOnUse" r="1" xlink:href="#ai"/><linearGradient id="aB" gradientUnits="userSpaceOnUse" x1="15.395" x2="16.5225" xlink:href="#ak" y1="25.4703" y2="27.0241"/><radialGradient id="aC" cx="0" cy="0" gradientTransform="matrix(5.06762786 -.09667965 .09666649 5.06693799 15.8808 24.6797)" gradientUnits="userSpaceOnUse" r="1" xlink:href="#ai"/><linearGradient id="aD" gradientUnits="userSpaceOnUse" x1="15.395" x2="16.5225" xlink:href="#ak" y1="22.8922" y2="24.4459"/><path d="m4 25.942c0 2.2319 1.76327 4.058 3.91837 4.058h16.16323c2.1551 0 3.9184-1.9275 3.9184-4.1594v-19.4109c0-1.3-1.5901-1.9-2.4845-1l-4.5419 4.5703h-9.8119l-4.6617-4.5703c-.9-.9-2.5-.3-2.5 1z" fill="url(#H)"/><path d="m4 25.942c0 2.2319 1.76327 4.058 3.91837 4.058h16.16323c2.1551 0 3.9184-1.9275 3.9184-4.1594v-19.4109c0-1.3-1.5901-1.9-2.4845-1l-4.5419 4.5703h-9.8119l-4.6617-4.5703c-.9-.9-2.5-.3-2.5 1z" fill="url(#J)"/><path d="m4 25.942c0 2.2319 1.76327 4.058 3.91837 4.058h16.16323c2.1551 0 3.9184-1.9275 3.9184-4.1594v-19.4109c0-1.3-1.5901-1.9-2.4845-1l-4.5419 4.5703h-9.8119l-4.6617-4.5703c-.9-.9-2.5-.3-2.5 1z" fill="url(#K)"/><path d="m4 25.942c0 2.2319 1.76327 4.058 3.91837 4.058h16.16323c2.1551 0 3.9184-1.9275 3.9184-4.1594v-19.4109c0-1.3-1.5901-1.9-2.4845-1l-4.5419 4.5703h-9.8119l-4.6617-4.5703c-.9-.9-2.5-.3-2.5 1z" fill="url(#L)"/><path d="m4 25.942c0 2.2319 1.76327 4.058 3.91837 4.058h16.16323c2.1551 0 3.9184-1.9275 3.9184-4.1594v-19.4109c0-1.3-1.5901-1.9-2.4845-1l-4.5419 4.5703h-9.8119l-4.6617-4.5703c-.9-.9-2.5-.3-2.5 1z" fill="url(#M)"/><path d="m4 25.942c0 2.2319 1.76327 4.058 3.91837 4.058h16.16323c2.1551 0 3.9184-1.9275 3.9184-4.1594v-19.4109c0-1.3-1.5901-1.9-2.4845-1l-4.5419 4.5703h-9.8119l-4.6617-4.5703c-.9-.9-2.5-.3-2.5 1z" fill="url(#N)"/><g filter="url(#a)"><path d="m23.7539 26.6784c-.0795.0159-.1606.0061-.2317-.0328-.7782-.4256-2.6938-2.0558-2.873-3.8432-.3289-2.2846 2.2689-3.2477 3.4127-1.6614.0934.1295.2094.3014.3017.4611.0835.1444.2848.2107.4311.1305.206-.1129.4563-.2355.6272-.2911 1.5049-.4901 3.4786 1.2559 1.8113 3.3725-.6912 1.0076-2.4364 1.6567-3.4793 1.8644z" fill="#df6735"/></g><g filter="url(#b)"><rect fill="#d67908" height="3.69801" rx="1.36346" width="2.72692" x="5.05408" y="21.8203"/></g><g filter="url(#c)"><path d="m20.5855 10.2353c-2.9832.1076 5.2266 4.9538 5.2266 4.9538l1.125-9.06248c.0547-.46094-.3642-.95351-1.25-.13098 0 0-3.8266 3.76801-4.0136 3.95222-.1871.18424-.4081.24894-.7017.28744-.1495.0197-.2355-.0054-.3863 0z" fill="url(#O)"/></g><path d="m6.13258 13.5034 2.8-2.6c.32-.3.32-.78 0-1.06996l-3.01468-2.67718c-.38282-.33594-1.17532-.22656-1.17532.60718v5.19996c0 .8335.88 1.02 1.39.54z" fill="url(#P)"/><g filter="url(#d)"><path d="m26.4909 5.65184c.0579-.14368.1973-.23778.3522-.23778.2098 0 .3798.17005.3798.37982v2.24518l-1.4174-.6875z" fill="url(#Q)"/></g><g filter="url(#e)"><path d="m5.40601 6.10156 3.37496 3.21954c.75411.7194.76824 1.9185.03129 2.6555" stroke="#ffdf70" stroke-linecap="round"/></g><g filter="url(#f)"><path d="m14.8054 20.6503.0643-.015c.4736-.1105.9669-.1053 1.438.015.5211.0981.8322.6955.3922 1.1255l-.5508.6015c-.27.27-.8628.27-1.1328 0l-.5429-.6015c-.4493-.5079-.168-1.0157.332-1.1255z" fill="url(#R)"/></g><path d="m15.2265 20.2066.0643-.015c.4736-.1105.9669-.1054 1.4381.015.5211.0981.8321.6954.3921 1.1254l-.5507.6016c-.27.27-.8628.27-1.1328 0l-.543-.6016c-.4492-.5078-.168-1.0156.332-1.1254z" fill="url(#S)"/><g filter="url(#g)"><ellipse cx="16.2703" cy="20.7414" fill="url(#T)" rx=".761719" ry=".274258"/></g><g filter="url(#h)"><path d="m24.7851 22.8922 3.8047-1.8125" stroke="url(#U)" stroke-linecap="round" stroke-miterlimit="10" stroke-width="1.2"/></g><g filter="url(#i)"><path d="m24.7851 24.9235 1.9266 1.3656" stroke="url(#V)" stroke-linecap="round" stroke-miterlimit="10" stroke-width="1.2"/></g><path d="m25.5663 22.5391 3.8047-1.8125" stroke="url(#X)" stroke-linecap="round" stroke-miterlimit="10" stroke-width="1.2"/><g filter="url(#j)"><path d="m25.5663 22.7109 3.8047-1.8125" stroke="#ff8485" stroke-linecap="round" stroke-miterlimit="10" stroke-width=".3"/></g><g filter="url(#k)"><ellipse cx="29.6059" cy="20.5805" fill="#ffdd86" rx=".18384" ry=".165827" transform="matrix(.92223134 -.38663853 .38663853 .92223134 -5.654803 13.0473)"/></g><path d="m25.5636 24.6692 3.8016 1.8191" stroke="url(#Y)" stroke-linecap="round" stroke-miterlimit="10" stroke-width="1.2"/><g filter="url(#l)"><path d="m25.4984 24.5491 3.8016 1.8191" stroke="#ff8485" stroke-linecap="round" stroke-miterlimit="10" stroke-width=".3"/></g><g filter="url(#m)"><ellipse cx="29.5404" cy="26.3682" fill="#ffdd86" rx=".18384" ry=".165827" transform="matrix(.88049307 .47405901 -.47405901 .88049307 16.030365 -10.85271)"/></g><path d="m6.5281 24.681-3.80156 1.819" stroke="url(#Z)" stroke-linecap="round" stroke-miterlimit="10" stroke-width="1.2"/><g filter="url(#n)"><path d="m6.59334 24.5608-3.80155 1.8191" stroke="#ff8485" stroke-linecap="round" stroke-miterlimit="10" stroke-width=".3"/></g><g filter="url(#o)"><ellipse fill="#ffdd86" rx=".18384" ry=".165827" transform="matrix(-.942776 -.333427 -.333427 .942776 6.64614 24.505)"/></g><path d="m6.53973 22.5243-3.81358-1.7938" stroke="url(#aa)" stroke-linecap="round" stroke-miterlimit="10" stroke-width="1.2"/><g filter="url(#p)"><path d="m6.67403 22.4989-3.81357-1.7937" stroke="#ff8485" stroke-linecap="round" stroke-miterlimit="10" stroke-width=".3"/></g><g filter="url(#q)"><ellipse fill="#ffdd86" rx=".18384" ry=".165827" transform="matrix(-.338111 -.941106 -.941106 .338111 6.75078 22.5044)"/></g><g filter="url(#r)"><path d="m22.1024 10.1016h4.5851v14.1857h-4.5851z" fill="url(#ab)"/></g><path d="m25.8329 13.5034-2.8-2.6c-.32-.3-.32-.78 0-1.06996l3.0147-2.67718c.3828-.33594 1.1753-.22656 1.1753.60718v5.19996c0 .8335-.88 1.02-1.39.54z" fill="#ffb915"/><path d="m25.8329 13.5034-2.8-2.6c-.32-.3-.32-.78 0-1.06996l3.0147-2.67718c.3828-.33594 1.1753-.22656 1.1753.60718v5.19996c0 .8335-.88 1.02-1.39.54z" fill="url(#ac)"/><g filter="url(#s)"><path d="m26.6336 7.36719-3.625 3.12501 3.5469 2.8125z" fill="url(#ad)"/></g><g filter="url(#t)"><path d="m23.7274 10.2891 2.5312 2.7343" stroke="url(#ae)" stroke-linecap="round" stroke-width=".5"/></g><g filter="url(#u)"><path d="m5.22321 7.49927v5.90773l3.46875-3.0894z" fill="#feb33e"/></g><g filter="url(#v)"><path d="m5.22321 7.72656v5.18754" stroke="#ffe7a3" stroke-linecap="round" stroke-width=".15"/></g><g filter="url(#w)"><path clip-rule="evenodd" d="m10.9757 19.2762c-.141.1855-.1986.4211-.2034.5661-.01.3036-.2642.5416-.5678.5316-.30357-.01-.54157-.2643-.53156-.5679.01085-.3289.12361-.7964.42716-1.1956.322-.4235.8407-.7425 1.5757-.7425.7424 0 1.266.335 1.59.7629.3062.4043.4289.8807.4364 1.2203.0067.3037-.2341.5553-.5378.562s-.5553-.2341-.5619-.5378c-.003-.1343-.0622-.3805-.2136-.5804-.1336-.1763-.3431-.327-.7131-.327-.3775 0-.5776.1472-.7001.3083z" fill="url(#ag)" fill-rule="evenodd"/></g><g filter="url(#x)"><path clip-rule="evenodd" d="m18.9445 19.2762c-.141.1855-.1986.4211-.2034.5661-.01.3036-.2642.5416-.5678.5316s-.5416-.2643-.5316-.5679c.0109-.3289.1236-.7964.4271-1.1956.3221-.4235.8407-.7425 1.5757-.7425.7425 0 1.266.335 1.5901.7629.3061.4043.4289.8807.4364 1.2203.0067.3037-.2341.5553-.5378.562s-.5553-.2341-.562-.5378c-.0029-.1343-.0622-.3805-.2135-.5804-.1336-.1763-.3431-.327-.7132-.327-.3774 0-.5775.1472-.7.3083z" fill="url(#ah)" fill-rule="evenodd"/></g><g stroke-linecap="round"><path d="m10.5508 19.4141c.0156-.474.3406-1.4063 1.4531-1.4063s1.4662.9714 1.4766 1.4453" stroke="url(#aj)" stroke-width="1.1"/><path d="m10.5508 19.4141c.0156-.474.3406-1.4063 1.4531-1.4063s1.4662.9714 1.4766 1.4453" stroke="url(#al)" stroke-width="1.1"/><path d="m18.5195 19.4141c.0157-.474.3407-1.4063 1.4532-1.4063s1.4661.9714 1.4765 1.4453" stroke="url(#am)" stroke-width="1.1"/><path d="m18.5195 19.4141c.0157-.474.3407-1.4063 1.4532-1.4063s1.4661.9714 1.4765 1.4453" stroke="url(#an)" stroke-width="1.1"/></g><g filter="url(#y)"><ellipse cx="21.5391" cy="19.3672" fill="#715167" rx=".164062" ry=".226562"/></g><g filter="url(#z)"><ellipse cx="13.6445" cy="19.3672" fill="#715167" rx=".164062" ry=".226562"/></g><path d="m23.8404 26.9383c-.1344-.0017-.2536-.0786-.3168-.1973-.62-1.165-1.5417-3.3805-1.2345-5.4442.2818-2.6811 3.4992-3.0277 4.34-.9039.0747.1886.1653.4417.2246.6626.0432.1611.2204.2745.3816.2314.2752-.0735.6238-.1493.8478-.1643 1.8443-.1239 3.5792 2.4183 1.0851 4.3376-1.0537.9275-3.9888 1.4955-5.3278 1.4781z" fill="url(#ao)"/><path d="m23.8404 26.9383c-.1344-.0017-.2536-.0786-.3168-.1973-.62-1.165-1.5417-3.3805-1.2345-5.4442.2818-2.6811 3.4992-3.0277 4.34-.9039.0747.1886.1653.4417.2246.6626.0432.1611.2204.2745.3816.2314.2752-.0735.6238-.1493.8478-.1643 1.8443-.1239 3.5792 2.4183 1.0851 4.3376-1.0537.9275-3.9888 1.4955-5.3278 1.4781z" fill="url(#ap)"/><path d="m23.8404 26.9383c-.1344-.0017-.2536-.0786-.3168-.1973-.62-1.165-1.5417-3.3805-1.2345-5.4442.2818-2.6811 3.4992-3.0277 4.34-.9039.0747.1886.1653.4417.2246.6626.0432.1611.2204.2745.3816.2314.2752-.0735.6238-.1493.8478-.1643 1.8443-.1239 3.5792 2.4183 1.0851 4.3376-1.0537.9275-3.9888 1.4955-5.3278 1.4781z" fill="url(#aq)"/><path d="m23.8404 26.9383c-.1344-.0017-.2536-.0786-.3168-.1973-.62-1.165-1.5417-3.3805-1.2345-5.4442.2818-2.6811 3.4992-3.0277 4.34-.9039.0747.1886.1653.4417.2246.6626.0432.1611.2204.2745.3816.2314.2752-.0735.6238-.1493.8478-.1643 1.8443-.1239 3.5792 2.4183 1.0851 4.3376-1.0537.9275-3.9888 1.4955-5.3278 1.4781z" fill="url(#ar)"/><g filter="url(#A)"><path d="m25.1452 24.4821 1.4262-2.6056c.0046-.6356-.3072-1.5484-.7109-1.8968l-1.3254.9249z" fill="url(#at)"/></g><g filter="url(#B)"><path d="m27.8501 23.5472 1.8376-1.2569c.362.4112.4072.9854.3504 1.2393z" fill="url(#au)"/></g><g filter="url(#C)"><ellipse cx="28.5994" cy="21.5821" fill="url(#av)" rx=".411162" ry=".264318" transform="matrix(.97585619 .21841406 -.21841406 .97585619 5.404333 -5.725437)"/></g><g filter="url(#D)"><path d="m26.4798 21.7874-1.1302 1.8623" stroke="url(#aw)" stroke-linecap="round" stroke-width=".2"/></g><g filter="url(#E)"><path d="m27.0787 21.7666-1.6739 2.6362 3.8202-2.1558c-.9238-.8537-1.8158-.676-2.1463-.4804z" fill="url(#ay)"/></g><g filter="url(#F)"><path d="m25.8518 19.9777-1.5825 1.0388-.5314-1.2368c.8856-.653 1.8941-.0747 2.1139.198z" fill="url(#az)"/></g><g filter="url(#G)"><path d="m16.0179 24.3904c.1249.0041.3289.0539.489.1756.138.105.265.2764.265.6034 0 .3202-.1299.5-.2814.6148-.1729.1309-.3862.1821-.5015.1847-.2761.006-.4949.2348-.4889.5108.0061.2761.2348.495.5109.4889.0022 0 .0044-.0001.0066-.0001.1249.0041.3292.0539.4893.1757.138.1049.265.2763.265.6033 0 .3203-.1299.5-.2814.6148-.1729.1309-.3862.1822-.5015.1847-.2761.0061-.477-.3777-.4709-.1016.006.2761.2348.495.5108.4889.3019-.0066.7245-.1156 1.0833-.3873.3801-.2879.3566-.4976.3566-1.1564 0-.5751.0828-.6447-.2276-.9338.3072-.2908.5307-.7164.5307-1.2874 0-.652-.2832-1.1131-.6597-1.3994-.3544-.2694-.7692-.3695-1.0613-.3791-.276-.0091-.5072.2073-.5163.4833-.009.2759.2073.5071.4833.5162z" fill="#df6735"/></g><path d="m16.0344 25.9687c.4171.0138 1.2375.2998 1.2375 1.2788s-.8548 1.2902-1.2719 1.2994" stroke="url(#aA)" stroke-linecap="round"/><path d="m16.0344 25.9687c.4171.0138 1.2375.2998 1.2375 1.2788s-.8548 1.2902-1.2719 1.2994" stroke="url(#aB)" stroke-linecap="round"/><path d="m16.0344 23.3906c.4171.0138 1.2375.2998 1.2375 1.2788s-.8548 1.2902-1.2719 1.2993" stroke="url(#aC)" stroke-linecap="round"/><path d="m16.0344 23.3906c.4171.0138 1.2375.2998 1.2375 1.2788s-.8548 1.2902-1.2719 1.2993" stroke="url(#aD)" stroke-linecap="round"/></svg>