<svg height="24" viewBox="0 0 24 24" width="24" xmlns="http://www.w3.org/2000/svg"><path d="m9.522 15.553-.00075-6.74325 6.4845 3.38325zm14.238-7.91175s-.23475-1.65375-.954-2.382c-.91275-.95625-1.93575-.96075-2.4045-1.01625-3.3585-.243-8.39625-.243-8.39625-.243h-.0105s-5.03775 0-8.39625.243c-.4695.0555-1.49175.06-2.40525 1.01625-.71925.72825-.95325 2.382-.95325 2.382s-.24 1.9425-.24 3.88425v1.821c0 1.9425.24 3.88425.24 3.88425s.234 1.65375.95325 2.382c.9135.95625 2.11275.92625 2.64675 1.026 1.92.1845 8.16.2415 8.16.2415s5.043-.0075 8.4015-.2505c.46875-.05625 1.49175-.06075 2.4045-1.017.71925-.72825.954-2.382.954-2.382s.24-1.94175.24-3.88425v-1.821c0-1.94175-.24-3.88425-.24-3.88425z" fill="#cd201f" fill-rule="evenodd"/></svg>